<?xml version="1.0" encoding="utf-8"?>
<!-- Generator: Adobe Illustrator 23.0.3, SVG Export Plug-In . SVG Version: 6.00 Build 0)  -->
<svg version="1.1" id="Layer_1" xmlns="http://www.w3.org/2000/svg" xmlns:xlink="http://www.w3.org/1999/xlink" x="0px" y="0px"
	 viewBox="0 0 100.13 100.14" style="enable-background:new 0 0 100.13 100.14;" xml:space="preserve">
<style type="text/css">
	.st0{fill:#FFFFFF;}
</style>
<path class="st0" d="M42.91,78.72l-21.41,21.42h14.33l14.25-14.25l14.25,14.25h14.33L50.07,71.56L42.91,78.72z M71.56,50.07
	l28.57,28.57V64.32L85.89,50.07l14.24-14.25V21.5L71.56,50.07z M0,35.82l14.25,14.25L0,64.32v14.33l28.58-28.58L0,21.49V35.82z
	 M64.32,0L50.07,14.25L35.82,0H21.49l28.58,28.58L78.65,0H64.32z M92.97,0l-42.9,42.9L7.16,0H0v7.16l42.91,42.91L0,92.97v7.16h7.16
	l42.9-42.91l42.9,42.91h7.16v-7.17l-42.9-42.9l42.9-42.9V0H92.97z"/>
</svg>
